<svg width="298" height="444" viewBox="0 0 298 444" fill="none" xmlns="http://www.w3.org/2000/svg">
<path d="M132.703 199.23L214.483 338.762C227.299 316.421 233.707 293.571 233.707 270.215C233.707 261.684 231.164 255.896 226.078 252.849C222.417 250.615 216.11 249.193 207.159 248.584V230.914C220.789 232.742 232.995 233.656 243.777 233.656C254.559 233.656 266.765 232.742 280.395 230.914V248.584C271.037 249.193 264.527 250.514 260.865 252.545C255.373 255.794 252.118 264.426 251.101 278.44C248.659 308.093 240.726 335.004 227.299 359.174L240.42 382.632C247.744 395.834 253.745 404.06 258.424 407.309C262.289 410.153 270.528 411.777 283.141 412.184V424.674C271.342 423.253 260.865 422.542 251.711 422.542C242.76 422.542 232.283 423.253 220.281 424.674L201.667 391.162C191.902 400.708 182.747 408.223 174.203 413.707C157.929 424.471 139.721 429.854 119.582 429.854C88.0495 429.854 62.2135 418.683 42.0737 396.342C23.3579 375.828 14 349.628 14 317.741C14 297.227 17.6618 279.456 24.9854 264.426C35.7673 242.288 55.602 218.829 84.4894 194.051C70.8594 169.272 62.2135 152.516 58.5517 143.783C51.8385 128.753 48.4818 113.521 48.4818 98.0847C48.4818 70.0565 57.2294 48.1213 74.7246 32.2793C88.1512 20.0931 103.714 14 121.412 14C140.332 14 155.793 20.804 167.795 34.4119C180.408 48.8322 186.714 67.7208 186.714 91.0776C186.714 105.904 184.476 118.7 180.001 129.464C171.864 149.165 156.098 172.42 132.703 199.23ZM113.173 166.023C124.972 152.821 133.923 141.346 140.026 131.597C143.205 126.519 145.887 121.402 148.072 116.245C152.662 105.415 155.06 94.4109 155.269 83.2314C155.278 82.6991 155.284 82.1664 155.284 81.6333C155.284 62.7447 150.198 48.5275 140.026 38.9817C134.33 33.701 127.719 31.0607 120.192 31.0607C110.63 31.0607 102.188 35.2243 94.8644 43.5515C94.7245 43.7102 94.586 43.87 94.4482 44.0303C87.3582 52.281 83.1657 62.5699 81.8715 74.8975C81.5824 77.6504 81.4379 80.505 81.4379 83.4613C81.4379 94.0226 82.8619 103.365 85.71 111.489L113.173 166.023ZM103.714 226.649C90.0838 238.835 80.0139 250.006 73.504 260.161C62.3152 277.628 56.7208 297.837 56.7208 320.787C56.7208 340.082 60.9929 357.752 69.5371 373.797C81.5396 396.342 100.052 407.614 125.074 407.614C140.942 407.614 156.708 401.216 172.372 388.421C177.255 384.562 182.951 379.281 189.461 372.579L103.714 226.649Z" fill="black"/>
<path fill-rule="evenodd" clip-rule="evenodd" d="M73.504 260.161C62.3152 277.628 56.7208 297.837 56.7208 320.787C56.7208 340.082 60.9929 357.752 69.5371 373.797C81.3521 395.989 99.4752 407.259 123.906 407.605L125.074 407.614C140.446 407.614 155.722 401.61 170.903 389.602L172.372 388.421C177.255 384.562 182.951 379.281 189.461 372.579L103.714 226.649C90.0838 238.835 80.0139 250.006 73.504 260.161ZM163.516 377.578C149.651 388.903 136.913 393.614 125.074 393.614C114.728 393.614 106.446 391.307 99.7041 387.202C92.9472 383.088 86.9285 376.672 81.8945 367.217L81.2109 365.91C74.2625 352.359 70.7207 337.397 70.7207 320.787C70.7207 300.218 75.6983 282.689 85.292 267.712C88.8881 262.103 93.9414 255.86 100.6 248.984L171.873 370.283C168.817 373.164 166.094 375.539 163.691 377.438L163.603 377.507L163.516 377.578ZM168.382 35.0908C180.604 49.4232 186.714 68.0859 186.714 91.0776C186.714 105.904 184.476 118.7 180.001 129.464C171.864 149.165 156.098 172.42 132.703 199.23L214.483 338.762C227.099 316.769 233.505 294.285 233.702 271.309L233.707 270.215C233.707 261.684 231.164 255.896 226.078 252.849C222.417 250.615 216.11 249.193 207.159 248.584V230.914C219.938 232.628 231.464 233.538 241.739 233.646L243.777 233.656C254.559 233.656 266.765 232.742 280.395 230.914V248.584C271.037 249.193 264.527 250.514 260.865 252.545C255.373 255.794 252.118 264.426 251.101 278.44L250.982 279.828C248.41 308.934 240.516 335.382 227.299 359.174L240.42 382.632L241.104 383.855C248.118 396.343 253.892 404.161 258.424 407.309L258.8 407.572C262.809 410.253 270.923 411.79 283.141 412.184V424.674C272.08 423.342 262.181 422.633 253.443 422.55L251.711 422.542C242.76 422.542 232.283 423.253 220.281 424.674L201.667 391.162C191.902 400.708 182.747 408.223 174.203 413.707C157.929 424.471 139.721 429.854 119.582 429.854C88.0495 429.854 62.2135 418.683 42.0737 396.342C23.3579 375.828 14 349.628 14 317.741C14 297.227 17.6618 279.456 24.9854 264.426C35.7673 242.288 55.602 218.829 84.4894 194.051C70.8594 169.272 62.2135 152.516 58.5517 143.783C52.0483 129.223 48.6945 114.472 48.4912 99.5312L48.4818 98.0847C48.4818 70.4944 56.9583 48.8083 73.9111 33.0264L74.7246 32.2793C88.1512 20.0931 103.714 14 121.412 14C140.332 14 155.793 20.804 167.795 34.4119L168.382 35.0908ZM278.534 217.038C265.362 218.805 253.795 219.656 243.777 219.656C233.76 219.656 222.192 218.805 209.021 217.038L193.159 214.911V261.663L206.208 262.552C210.22 262.825 213.281 263.259 215.523 263.765C216.631 264.014 217.445 264.26 218.016 264.47C218.537 264.661 218.766 264.789 218.787 264.801L218.835 264.83L218.844 264.835C218.873 264.882 218.922 264.968 218.982 265.106C219.253 265.722 219.707 267.249 219.707 270.215C219.707 283.079 217.521 295.866 213.043 308.618L149.826 200.759C170.197 176.51 184.81 154.49 192.939 134.808C198.278 121.953 200.714 107.254 200.714 91.0771C200.714 65.1062 193.64 42.6962 178.333 25.1953L178.313 25.1729L178.295 25.1514L177.598 24.3711C162.902 8.12662 143.798 0 121.412 0C100.147 6.65181e-05 81.2575 7.44751 65.3271 21.9014C44.3505 40.8959 34.4814 66.912 34.4814 98.085C34.4815 115.563 38.2847 132.682 45.7012 149.339C49.1653 157.566 56.3066 171.559 66.835 190.943C41.6101 213.76 23.1691 236.183 12.3994 258.296C3.95858 275.619 5.59479e-05 295.576 0 317.74C0 352.534 10.2959 382.251 31.6748 405.716C54.6111 431.159 84.3012 443.853 119.581 443.854C142.346 443.854 163.232 437.728 181.857 425.428C187.14 422.031 192.523 418.012 198.008 413.408L212.602 439.682L221.928 438.577C233.559 437.199 243.463 436.542 251.711 436.542C260.169 436.542 270.069 437.201 281.467 438.574L297.142 440.463V398.627L283.592 398.19C277.707 398.001 273.316 397.537 270.211 396.925C267.921 396.473 266.889 396.045 266.624 395.935C266.567 395.911 266.545 395.902 266.555 395.911L266.41 395.811L266.197 395.646C265.575 395.134 264.074 393.672 261.724 390.451C259.184 386.97 256.164 382.152 252.663 375.841L252.651 375.819L252.639 375.798L243.236 358.989C255.453 334.802 262.691 308.285 265.054 279.589L265.063 279.454C265.52 273.166 266.431 268.975 267.404 266.396C267.767 265.435 268.074 264.858 268.271 264.541C268.291 264.534 268.312 264.526 268.334 264.518C268.394 264.497 268.458 264.474 268.526 264.451C269.167 264.24 270.067 263.997 271.276 263.752C273.72 263.256 277.021 262.834 281.305 262.555L294.395 261.702V214.911L278.534 217.038Z" fill="white"/>
<path d="M113.173 166.023C124.972 152.821 133.923 141.346 140.026 131.597C143.205 126.519 145.887 121.402 148.072 116.245C152.662 105.415 155.06 94.4109 155.269 83.2314L155.284 81.6333C155.284 62.7447 150.198 48.5275 140.026 38.9817C134.33 33.701 127.719 31.0607 120.192 31.0607C110.63 31.0607 102.188 35.2243 94.8644 43.5515L94.4482 44.0303C87.3582 52.281 83.1657 62.5699 81.8715 74.8975C81.5824 77.6504 81.4379 80.505 81.4379 83.4613C81.4379 94.0226 82.8619 103.365 85.71 111.489L113.173 166.023Z" fill="white"/>
</svg>
