<svg xmlns="http://www.w3.org/2000/svg" version="1.1" xmlns:xlink="http://www.w3.org/1999/xlink" width="100" height="100"><svg width="100" height="100" viewBox="0 0 100 100" fill="none" xmlns="http://www.w3.org/2000/svg">
<rect width="100" height="100" fill="white"></rect>
<path d="M36.0527 75.5817L43.9738 49.8127H45.3134L53.6078 75.8233L48.2929 77.5949L47.8903 78.682H78.652L79.0546 77.5949L73.2163 75.018L60.8424 39.1061L80.9873 24.3659L88.6375 22.1916L88.9998 21.1045H69.9952L69.5926 22.1916L76.0751 24.2853L46.2797 46.6721H44.9392L51.7959 24.3659L58.2784 22.1916L58.5602 21.1045H28.1609L27.8791 22.1916L33.355 24.2048L17.5715 75.4206L11.089 77.5949L10.8071 78.682H41.2467L41.4883 77.5949L36.0527 75.5817Z" fill="black"></path>
</svg><style>@media (prefers-color-scheme: light) { :root { filter: none; } }
@media (prefers-color-scheme: dark) { :root { filter: none; } }
</style></svg>